<svg width="16" height="16" viewBox="0 0 16 16" fill="none" xmlns="http://www.w3.org/2000/svg">
<path d="M15.7213 14.5961C15.8047 14.6677 15.8725 14.7557 15.9204 14.8547C15.9683 14.9536 15.9952 15.0615 15.9994 15.1713C16.0036 15.2812 15.9851 15.3908 15.9451 15.4932C15.905 15.5956 15.8441 15.6886 15.7664 15.7663C15.6887 15.8441 15.5958 15.9049 15.4934 15.945C15.3911 15.9851 15.2816 16.0036 15.1718 15.9994C15.0619 15.9952 14.9542 15.9682 14.8552 15.9204C14.7563 15.8725 14.6683 15.8046 14.5968 15.7211L7.97789 9.10685L1.36692 15.7291C1.21437 15.8598 1.01813 15.9281 0.81743 15.9203C0.616728 15.9126 0.426342 15.8293 0.284318 15.6873C0.142294 15.5452 0.0590931 15.3547 0.0513409 15.1539C0.0435886 14.9531 0.111856 14.7567 0.242502 14.6041L6.85347 7.98187L0.234527 1.36761C0.0843619 1.21737 0 1.0136 0 0.801125C0 0.69592 0.0207113 0.591745 0.0609516 0.494548C0.101192 0.397351 0.160173 0.309035 0.234527 0.234644C0.308881 0.160253 0.397153 0.101242 0.494301 0.060982C0.59145 0.0207217 0.695573 0 0.800726 0C1.01309 0 1.21676 0.0844039 1.36692 0.234644L7.97789 6.85688L14.5889 0.242623C14.7414 0.111912 14.9376 0.0436104 15.1383 0.0513665C15.3391 0.0591226 15.5294 0.142365 15.6715 0.28446C15.8135 0.426554 15.8967 0.617035 15.9044 0.817837C15.9122 1.01864 15.8439 1.21497 15.7133 1.36761L9.10231 7.98187L15.7213 14.5961Z" fill="#ADB4C3"/>
</svg>
