<svg width="40" height="49" viewBox="0 0 40 49" fill="none" xmlns="http://www.w3.org/2000/svg">
<mask id="path-1-inside-1" fill="white">
<path d="M33.1213 3.23212C31.2724 3.63434 29.3589 3.6379 27.5084 3.24258C25.658 2.84725 23.913 2.06212 22.3898 0.939479C21.5544 0.329012 20.5465 0 19.5118 0C18.4771 0 17.4692 0.329012 16.6338 0.939479C15.1121 2.06495 13.3672 2.85182 11.5162 3.24725C9.66526 3.64268 7.75113 3.63752 5.90234 3.23212C5.18986 3.07826 4.45195 3.08603 3.74287 3.25486C3.03379 3.42369 2.37156 3.74928 1.80486 4.20771C1.24529 4.66162 0.79323 5.23386 0.481164 5.8833C0.169098 6.53273 0.00477803 7.24323 1.33217e-05 7.96374V24.4024C-0.00378563 27.9004 0.804976 31.3514 2.36254 34.4835C3.9201 37.6156 6.18389 40.343 8.97545 42.4509L16.6338 48.0605C17.4692 48.671 18.4771 49 19.5118 49C20.5465 49 21.5544 48.671 22.3898 48.0605L30.0482 42.4021C32.8416 40.3071 35.1075 37.589 36.6657 34.4642C38.2238 31.3395 39.0312 27.8942 39.0236 24.4024V7.96374C39.0189 7.24323 38.8546 6.53273 38.5425 5.8833C38.2304 5.23386 37.7784 4.66162 37.2188 4.20771C36.6521 3.74928 35.9899 3.42369 35.2808 3.25486C34.5717 3.08603 33.8338 3.07826 33.1213 3.23212ZM29.2677 24.4024C29.2248 26.2878 28.7652 28.1402 27.9218 29.8269C27.0784 31.5136 25.8723 32.9928 24.3898 34.1583L19.5118 37.6705L14.6339 34.1583C13.1514 32.9928 11.9452 31.5136 11.1019 29.8269C10.2585 28.1402 9.79886 26.2878 9.75592 24.4024V13.2807C13.1676 13.1274 16.5015 12.2106 19.5118 10.5978C22.5222 12.2106 25.856 13.1274 29.2677 13.2807V24.4024Z"/>
</mask>
<path d="M33.1213 3.23212C31.2724 3.63434 29.3589 3.6379 27.5084 3.24258C25.658 2.84725 23.913 2.06212 22.3898 0.939479C21.5544 0.329012 20.5465 0 19.5118 0C18.4771 0 17.4692 0.329012 16.6338 0.939479C15.1121 2.06495 13.3672 2.85182 11.5162 3.24725C9.66526 3.64268 7.75113 3.63752 5.90234 3.23212C5.18986 3.07826 4.45195 3.08603 3.74287 3.25486C3.03379 3.42369 2.37156 3.74928 1.80486 4.20771C1.24529 4.66162 0.79323 5.23386 0.481164 5.8833C0.169098 6.53273 0.00477803 7.24323 1.33217e-05 7.96374V24.4024C-0.00378563 27.9004 0.804976 31.3514 2.36254 34.4835C3.9201 37.6156 6.18389 40.343 8.97545 42.4509L16.6338 48.0605C17.4692 48.671 18.4771 49 19.5118 49C20.5465 49 21.5544 48.671 22.3898 48.0605L30.0482 42.4021C32.8416 40.3071 35.1075 37.589 36.6657 34.4642C38.2238 31.3395 39.0312 27.8942 39.0236 24.4024V7.96374C39.0189 7.24323 38.8546 6.53273 38.5425 5.8833C38.2304 5.23386 37.7784 4.66162 37.2188 4.20771C36.6521 3.74928 35.9899 3.42369 35.2808 3.25486C34.5717 3.08603 33.8338 3.07826 33.1213 3.23212ZM29.2677 24.4024C29.2248 26.2878 28.7652 28.1402 27.9218 29.8269C27.0784 31.5136 25.8723 32.9928 24.3898 34.1583L19.5118 37.6705L14.6339 34.1583C13.1514 32.9928 11.9452 31.5136 11.1019 29.8269C10.2585 28.1402 9.79886 26.2878 9.75592 24.4024V13.2807C13.1676 13.1274 16.5015 12.2106 19.5118 10.5978C22.5222 12.2106 25.856 13.1274 29.2677 13.2807V24.4024Z" fill="white" stroke="#4D30FF" stroke-width="4" mask="url(#path-1-inside-1)"/>
</svg>
