<svg width="37" height="47" viewBox="0 0 37 47" fill="none" xmlns="http://www.w3.org/2000/svg">
<path d="M9.25 33.85C8.79263 33.85 8.34553 33.9849 7.96524 34.2376C7.58496 34.4903 7.28856 34.8496 7.11353 35.2698C6.9385 35.6901 6.89271 36.1526 6.98193 36.5987C7.07116 37.0449 7.29141 37.4547 7.61482 37.7763C7.93822 38.098 8.35027 38.3171 8.79885 38.4058C9.24743 38.4946 9.7124 38.449 10.135 38.2749C10.5575 38.1008 10.9187 37.806 11.1728 37.4278C11.4269 37.0496 11.5625 36.6049 11.5625 36.15C11.5625 35.54 11.3189 34.955 10.8852 34.5237C10.4515 34.0923 9.86331 33.85 9.25 33.85V33.85ZM18.5 0.5C9.25 0.5 0 3.651 0 9.7V37.3C0 43.349 9.25 46.5 18.5 46.5C27.75 46.5 37 43.349 37 37.3V9.7C37 3.651 27.75 0.5 18.5 0.5ZM32.375 37.3C32.375 38.933 27.1025 41.9 18.5 41.9C9.8975 41.9 4.625 38.933 4.625 37.3V29.779C8.95416 31.8259 13.7082 32.8267 18.5 32.7C23.2918 32.8267 28.0458 31.8259 32.375 29.779V37.3ZM32.375 23.5C32.375 25.133 27.1025 28.1 18.5 28.1C9.8975 28.1 4.625 25.133 4.625 23.5V15.979C8.95416 18.0259 13.7082 19.0267 18.5 18.9C23.2918 19.0267 28.0458 18.0259 32.375 15.979V23.5ZM18.5 14.3C9.8975 14.3 4.625 11.333 4.625 9.7C4.625 8.067 9.8975 5.1 18.5 5.1C27.1025 5.1 32.375 8.067 32.375 9.7C32.375 11.333 27.1025 14.3 18.5 14.3ZM9.25 20.05C8.79263 20.05 8.34553 20.1849 7.96524 20.4376C7.58496 20.6903 7.28856 21.0496 7.11353 21.4698C6.9385 21.8901 6.89271 22.3526 6.98193 22.7987C7.07116 23.2449 7.29141 23.6547 7.61482 23.9763C7.93822 24.298 8.35027 24.5171 8.79885 24.6058C9.24743 24.6946 9.7124 24.649 10.135 24.4749C10.5575 24.3008 10.9187 24.006 11.1728 23.6278C11.4269 23.2496 11.5625 22.8049 11.5625 22.35C11.5625 21.74 11.3189 21.155 10.8852 20.7237C10.4515 20.2923 9.86331 20.05 9.25 20.05V20.05Z" fill="white"/>
</svg>
