<svg width="52" height="48" viewBox="0 0 52 48" fill="none" xmlns="http://www.w3.org/2000/svg">
<path d="M7.05 47.5C5.65564 47.5 4.2926 47.0866 3.13323 46.3119C1.97387 45.5372 1.07025 44.4362 0.536652 43.1479C0.00305467 41.8597 -0.136559 40.4422 0.135467 39.0746C0.407493 37.7071 1.07894 36.4509 2.0649 35.4649C3.05086 34.479 4.30705 33.8075 5.67462 33.5355C7.04218 33.2635 8.4597 33.4031 9.74792 33.9367C11.0361 34.4703 12.1372 35.3739 12.9119 36.5333C13.6865 37.6926 14.1 39.0557 14.1 40.45C14.098 42.3192 13.3545 44.1112 12.0329 45.4329C10.7112 46.7546 8.91915 47.498 7.05 47.5Z" fill="#FFF0EA"/>
<path d="M21.8064 31.0947C21.649 30.8292 21.4409 30.5974 21.1938 30.4125C20.9467 30.2276 20.6657 30.0932 20.3666 30.017C20.0676 29.9408 19.7564 29.9243 19.451 29.9684C19.1456 30.0126 18.8519 30.1165 18.5866 30.2742L11.1183 34.712C12.4344 35.6526 13.3867 37.0173 13.8155 38.5771L20.9871 34.3157C21.5228 33.9971 21.9101 33.4789 22.0637 32.8748C22.2174 32.2708 22.1248 31.6305 21.8064 31.0947Z" fill="#FFDACB"/>
<path d="M44.65 47.5C43.2556 47.5 41.8926 47.0866 40.7332 46.3119C39.5738 45.5372 38.6702 44.4362 38.1366 43.1479C37.603 41.8597 37.4634 40.4422 37.7354 39.0746C38.0075 37.7071 38.6789 36.4509 39.6649 35.4649C40.6508 34.479 41.907 33.8075 43.2746 33.5355C44.6422 33.2635 46.0597 33.4031 47.3479 33.9367C48.6361 34.4703 49.7372 35.3739 50.5118 36.5333C51.2865 37.6926 51.7 39.0557 51.7 40.45C51.6979 42.3192 50.9545 44.1112 49.6328 45.4329C48.3111 46.7546 46.5191 47.498 44.65 47.5Z" fill="#FFF0EA"/>
<path d="M40.5818 34.7121L33.1135 30.2743C32.8481 30.1167 32.5543 30.0129 32.2488 29.9688C31.9434 29.9247 31.6322 29.9412 31.3331 30.0174C31.034 30.0936 30.7529 30.228 30.5057 30.4128C30.2585 30.5976 30.0502 30.8294 29.8926 31.0947C29.7349 31.3601 29.6311 31.6539 29.5871 31.9594C29.543 32.2648 29.5595 32.576 29.6357 32.8751C29.7119 33.1742 29.8462 33.4553 30.0311 33.7025C30.2159 33.9497 30.4477 34.158 30.713 34.3156L37.8845 38.577C38.3133 37.0173 39.2657 35.6526 40.5818 34.7121Z" fill="#FFDACB"/>
<path d="M25.8501 14.6C24.4557 14.6 23.0926 14.1865 21.9333 13.4119C20.7739 12.6372 19.8703 11.5361 19.3367 10.2479C18.8031 8.9597 18.6635 7.54218 18.9355 6.17462C19.2075 4.80705 19.879 3.55086 20.8649 2.5649C21.8509 1.57894 23.1071 0.907493 24.4747 0.635467C25.8422 0.363441 27.2598 0.503055 28.548 1.03665C29.8362 1.57025 30.9372 2.47387 31.7119 3.63323C32.4866 4.7926 32.9001 6.15564 32.9001 7.55C32.898 9.41915 32.1546 11.2112 30.8329 12.5329C29.5112 13.8545 27.7192 14.598 25.8501 14.6Z" fill="#FFF0EA"/>
<path d="M25.85 14.6C25.0476 14.592 24.2525 14.4455 23.5 14.1668V21.65C23.5 22.2732 23.7476 22.871 24.1883 23.3117C24.629 23.7524 25.2267 24 25.85 24C26.4733 24 27.071 23.7524 27.5117 23.3117C27.9524 22.871 28.2 22.2732 28.2 21.65V14.167C27.4475 14.4456 26.6524 14.5921 25.85 14.6Z" fill="#FFDACB"/>
<path d="M25.85 35.75C29.7437 35.75 32.9 32.5936 32.9 28.7C32.9 24.8064 29.7437 21.65 25.85 21.65C21.9564 21.65 18.8 24.8064 18.8 28.7C18.8 32.5936 21.9564 35.75 25.85 35.75Z" fill="white"/>
<path d="M25.85 38.1C23.9908 38.1 22.1734 37.5487 20.6276 36.5159C19.0818 35.483 17.877 34.0149 17.1655 32.2973C16.454 30.5797 16.2679 28.6896 16.6306 26.8662C16.9933 25.0428 17.8885 23.3679 19.2032 22.0532C20.5178 20.7386 22.1927 19.8434 24.0161 19.4807C25.8395 19.118 27.7296 19.3041 29.4472 20.0156C31.1648 20.727 32.6329 21.9319 33.6658 23.4777C34.6987 25.0235 35.25 26.8409 35.25 28.7001C35.2473 31.1923 34.2561 33.5817 32.4938 35.3439C30.7316 37.1062 28.3422 38.0974 25.85 38.1ZM25.85 24.0001C24.9204 24.0001 24.0117 24.2757 23.2388 24.7921C22.4659 25.3086 21.8635 26.0426 21.5077 26.9014C21.152 27.7603 21.0589 28.7053 21.2403 29.617C21.4216 30.5287 21.8692 31.3661 22.5266 32.0235C23.1839 32.6808 24.0213 33.1284 24.933 33.3097C25.8447 33.4911 26.7898 33.398 27.6486 33.0423C28.5074 32.6866 29.2414 32.0841 29.7579 31.3112C30.2743 30.5383 30.55 29.6296 30.55 28.7001C30.5485 27.454 30.0529 26.2593 29.1718 25.3782C28.2907 24.4971 27.096 24.0015 25.85 24.0001Z" fill="white"/>
</svg>
