<svg width="0" height="0" class="hidden">
  <symbol xmlns="http://www.w3.org/2000/svg" viewBox="0 0 25 25" id="facebook">
    <path fill-rule="evenodd" clip-rule="evenodd" d="M24.997 9.227c0-6.72-1.6-8.319-8.319-8.319V.907h-7.36c-6.72 0-8.32 1.6-8.32 8.32v7.36c0 6.72 1.6 8.32 8.32 8.32h7.36c6.72 0 8.32-1.601 8.32-8.321V9.227zM11.32 19.737v-6.38h-1.152a.171.171 0 01-.17-.17v-1.923c0-.1.085-.17.17-.17h1.152V9.24a2.329 2.329 0 012.318-2.334h2.192c.099 0 .169.085.169.17v1.91a.172.172 0 01-.169.169h-1.293a.572.572 0 00-.576.58v1.358h1.827c.098 0 .183.085.169.184l-.14 1.91c-.015.084-.085.155-.17.155h-1.672v6.394c0 .099-.084.17-.168.17h-2.319a.171.171 0 01-.168-.17z"></path>
  </symbol>
  <symbol xmlns="http://www.w3.org/2000/svg" viewBox="0 0 24 25" id="telegram">
    <path fill-rule="evenodd" clip-rule="evenodd" d="M23.999 9.227c0-6.72-1.6-8.319-8.32-8.319V.907H8.32C1.6.907 0 2.507 0 9.227v7.36c0 6.72 1.6 8.32 8.32 8.32h7.36c6.719 0 8.319-1.601 8.319-8.321V9.227zm-6.705-1.915a.346.346 0 01.373.027c.11.082.166.22.147.36L16.5 16.912a.377.377 0 01-.168.264.349.349 0 01-.301.034l-5.004-1.784 4.92-6.185-6.357 5.672-2.986-1.064a.372.372 0 01-.24-.326.378.378 0 01.19-.36l10.739-5.85zM10.539 18.35v-2.31l1.941.693-1.295 1.839a.353.353 0 01-.4.134.373.373 0 01-.246-.355z"></path>
  </symbol>
  <symbol xmlns="http://www.w3.org/2000/svg" viewBox="0 0 25 25" id="vk">
    <path d="M16.677.908c6.72 0 8.32 1.6 8.32 8.32v7.358c0 6.72-1.6 8.32-8.32 8.32h-7.36c-6.72 0-8.32-1.599-8.32-8.319v-7.36c0-6.72 1.6-8.32 8.32-8.32h7.36v.001zm-9.43 7.499h-1.75c-.5 0-.599.235-.599.496 0 .462.593 2.762 2.762 5.802 1.446 2.076 3.483 3.202 5.338 3.202 1.112 0 1.25-.25 1.25-.68v-1.571c0-.5.105-.6.458-.6.26 0 .703.13 1.742 1.13 1.186 1.186 1.382 1.718 2.049 1.718h1.75c.5 0 .75-.249.605-.741-.157-.493-.724-1.206-1.476-2.052-.407-.481-1.018-1-1.204-1.26-.26-.333-.186-.484 0-.779l.03-.044c.264-.375 2.117-3.032 2.325-3.979.11-.371 0-.644-.53-.644h-1.75c-.445 0-.649.236-.76.497 0 0-.892 2.168-2.151 3.576-.408.408-.594.538-.816.538-.111 0-.273-.13-.273-.5V9.051c0-.446-.128-.644-.5-.644H11c-.278 0-.445.207-.445.402 0 .422.63.519.695 1.705v2.577c0 .565-.102.668-.325.668-.593 0-2.036-2.178-2.892-4.672-.167-.483-.336-.68-.783-.68h-.001z"></path>
  </symbol>
</svg>