<svg width="15" height="14" viewBox="0 0 15 14" fill="none" xmlns="http://www.w3.org/2000/svg">
<mask id="path-1-outside-1" maskUnits="userSpaceOnUse" x="-0.250977" y="0" width="15" height="14" fill="black">
<rect fill="white" x="-0.250977" width="15" height="14"/>
<path fill-rule="evenodd" clip-rule="evenodd" d="M14.2144 11.5364C14.2144 12.3449 13.5593 13 12.7508 13H2.21265C1.40414 13 0.749023 12.3449 0.749023 11.5364V3.04732C0.749023 2.40069 1.2733 1.87642 1.91993 1.87642H7.8245L10.1953 1.01756C10.3455 0.962821 10.5117 1.04039 10.5665 1.18998L10.8162 1.87642H11.8726C12.5192 1.87642 13.0435 2.40069 13.0435 3.04732V3.63277C13.6901 3.63277 14.2144 4.15705 14.2144 4.80368V11.5364ZM1.91993 2.46187C1.59676 2.46187 1.33448 2.72415 1.33448 3.04732C1.33448 3.37049 1.59676 3.63277 1.91993 3.63277H2.92837H2.98369C2.9875 3.63131 2.98984 3.62809 2.99365 3.62663L6.20836 2.46187H1.91993ZM10.4318 2.51485L10.1209 1.65892L9.52026 1.87642H9.52114L7.90705 2.46187H7.90412L4.67272 3.63277H10.8381L10.4318 2.51485ZM12.4581 3.04732C12.4581 2.72415 12.1958 2.46187 11.8726 2.46187H11.0287L11.4543 3.63277H12.4581V3.04732ZM13.0435 4.21823H1.91993C1.70565 4.21823 1.50718 4.15646 1.33448 4.05576V11.5364C1.33448 12.0214 1.7279 12.4145 2.21265 12.4145H12.7508C13.2358 12.4145 13.629 12.0214 13.629 11.5364V9.48729H12.4581C11.8114 9.48729 11.2872 8.96302 11.2872 8.31639C11.2872 7.66976 11.8114 7.14548 12.4581 7.14548H13.629V4.80368C13.629 4.48051 13.3667 4.21823 13.0435 4.21823ZM13.629 8.90184V7.73094H12.4581C12.1349 7.73094 11.8726 7.99322 11.8726 8.31639C11.8726 8.63956 12.1349 8.90184 12.4581 8.90184H13.629Z"/>
</mask>
<path fill-rule="evenodd" clip-rule="evenodd" d="M14.2144 11.5364C14.2144 12.3449 13.5593 13 12.7508 13H2.21265C1.40414 13 0.749023 12.3449 0.749023 11.5364V3.04732C0.749023 2.40069 1.2733 1.87642 1.91993 1.87642H7.8245L10.1953 1.01756C10.3455 0.962821 10.5117 1.04039 10.5665 1.18998L10.8162 1.87642H11.8726C12.5192 1.87642 13.0435 2.40069 13.0435 3.04732V3.63277C13.6901 3.63277 14.2144 4.15705 14.2144 4.80368V11.5364ZM1.91993 2.46187C1.59676 2.46187 1.33448 2.72415 1.33448 3.04732C1.33448 3.37049 1.59676 3.63277 1.91993 3.63277H2.92837H2.98369C2.9875 3.63131 2.98984 3.62809 2.99365 3.62663L6.20836 2.46187H1.91993ZM10.4318 2.51485L10.1209 1.65892L9.52026 1.87642H9.52114L7.90705 2.46187H7.90412L4.67272 3.63277H10.8381L10.4318 2.51485ZM12.4581 3.04732C12.4581 2.72415 12.1958 2.46187 11.8726 2.46187H11.0287L11.4543 3.63277H12.4581V3.04732ZM13.0435 4.21823H1.91993C1.70565 4.21823 1.50718 4.15646 1.33448 4.05576V11.5364C1.33448 12.0214 1.7279 12.4145 2.21265 12.4145H12.7508C13.2358 12.4145 13.629 12.0214 13.629 11.5364V9.48729H12.4581C11.8114 9.48729 11.2872 8.96302 11.2872 8.31639C11.2872 7.66976 11.8114 7.14548 12.4581 7.14548H13.629V4.80368C13.629 4.48051 13.3667 4.21823 13.0435 4.21823ZM13.629 8.90184V7.73094H12.4581C12.1349 7.73094 11.8726 7.99322 11.8726 8.31639C11.8726 8.63956 12.1349 8.90184 12.4581 8.90184H13.629Z" fill="#ADB4C3"/>
<path fill-rule="evenodd" clip-rule="evenodd" d="M14.2144 11.5364C14.2144 12.3449 13.5593 13 12.7508 13H2.21265C1.40414 13 0.749023 12.3449 0.749023 11.5364V3.04732C0.749023 2.40069 1.2733 1.87642 1.91993 1.87642H7.8245L10.1953 1.01756C10.3455 0.962821 10.5117 1.04039 10.5665 1.18998L10.8162 1.87642H11.8726C12.5192 1.87642 13.0435 2.40069 13.0435 3.04732V3.63277C13.6901 3.63277 14.2144 4.15705 14.2144 4.80368V11.5364ZM1.91993 2.46187C1.59676 2.46187 1.33448 2.72415 1.33448 3.04732C1.33448 3.37049 1.59676 3.63277 1.91993 3.63277H2.92837H2.98369C2.9875 3.63131 2.98984 3.62809 2.99365 3.62663L6.20836 2.46187H1.91993ZM10.4318 2.51485L10.1209 1.65892L9.52026 1.87642H9.52114L7.90705 2.46187H7.90412L4.67272 3.63277H10.8381L10.4318 2.51485ZM12.4581 3.04732C12.4581 2.72415 12.1958 2.46187 11.8726 2.46187H11.0287L11.4543 3.63277H12.4581V3.04732ZM13.0435 4.21823H1.91993C1.70565 4.21823 1.50718 4.15646 1.33448 4.05576V11.5364C1.33448 12.0214 1.7279 12.4145 2.21265 12.4145H12.7508C13.2358 12.4145 13.629 12.0214 13.629 11.5364V9.48729H12.4581C11.8114 9.48729 11.2872 8.96302 11.2872 8.31639C11.2872 7.66976 11.8114 7.14548 12.4581 7.14548H13.629V4.80368C13.629 4.48051 13.3667 4.21823 13.0435 4.21823ZM13.629 8.90184V7.73094H12.4581C12.1349 7.73094 11.8726 7.99322 11.8726 8.31639C11.8726 8.63956 12.1349 8.90184 12.4581 8.90184H13.629Z" stroke="#ADB4C3" stroke-width="0.3" mask="url(#path-1-outside-1)"/>
</svg>
