<svg width="85" height="187" viewBox="0 0 85 187" fill="none" xmlns="http://www.w3.org/2000/svg">
<path d="M-8.5 0L-8.4819 93.408L27.2811 7.11724L-8.44797 93.4223L57.6143 27.3855L-8.42234 93.448L77.8827 57.7189L-8.40801 93.4819L85 93.5L-8.40801 93.5181L77.8827 129.281L-8.42234 93.552L57.6143 159.614L-8.44797 93.5777L27.2811 179.883L-8.4819 93.592L-8.5 187L-8.5181 93.592L-44.2811 179.883L-8.55203 93.5777L-74.6145 159.614L-8.57766 93.552L-94.8828 129.281L-8.59199 93.5181L-102 93.5L-8.59199 93.4819L-94.8828 57.7189L-8.57766 93.448L-74.6145 27.3855L-8.55203 93.4223L-44.2811 7.11724L-8.5181 93.408L-8.5 0Z" fill="#FF6D30" stroke="#FF6D30" stroke-width="4"/>
</svg>
