<svg width="90" height="90" viewBox="0 0 90 90" fill="none" xmlns="http://www.w3.org/2000/svg">
<rect width="90" height="90" rx="4" fill="#4D30FF"/>
<mask id="path-2-inside-1" fill="white">
<path d="M56.3897 26.7704C54.8049 27.1151 53.1648 27.1182 51.5787 26.7794C49.9926 26.4405 48.4969 25.7675 47.1913 24.8053C46.4752 24.282 45.6113 24 44.7244 24C43.8375 24 42.9736 24.282 42.2576 24.8053C40.9532 25.77 39.4576 26.4444 37.871 26.7834C36.2845 27.1223 34.6438 27.1179 33.0591 26.7704C32.4484 26.6385 31.816 26.6452 31.2082 26.7899C30.6004 26.9346 30.0328 27.2137 29.547 27.6066C29.0674 27.9957 28.6799 28.4862 28.4124 29.0428C28.1449 29.5995 28.0041 30.2085 28 30.8261V44.9164C27.9968 47.9146 28.69 50.8727 30.025 53.5573C31.3601 56.2419 33.3005 58.5797 35.6932 60.3865L42.2576 65.1947C42.9736 65.718 43.8375 66 44.7244 66C45.6113 66 46.4752 65.718 47.1913 65.1947L53.7556 60.3447C56.1499 58.5489 58.0921 56.2192 59.4277 53.5408C60.7633 50.8624 61.4553 47.9093 61.4488 44.9164V30.8261C61.4448 30.2085 61.3039 29.5995 61.0364 29.0428C60.7689 28.4862 60.3815 27.9957 59.9018 27.6066C59.4161 27.2137 58.8485 26.9346 58.2407 26.7899C57.6329 26.6452 57.0004 26.6385 56.3897 26.7704ZM53.0866 44.9164C53.0498 46.5324 52.6558 48.1202 51.933 49.5659C51.2101 51.0117 50.1762 52.2795 48.9055 53.2786L44.7244 56.289L40.5433 53.2786C39.2726 52.2795 38.2388 51.0117 37.5159 49.5659C36.793 48.1202 36.399 46.5324 36.3622 44.9164V35.3835C39.2865 35.2521 42.1441 34.4662 44.7244 33.0839C47.3047 34.4662 50.1623 35.2521 53.0866 35.3835V44.9164Z"/>
</mask>
<path d="M56.3897 26.7704C54.8049 27.1151 53.1648 27.1182 51.5787 26.7794C49.9926 26.4405 48.4969 25.7675 47.1913 24.8053C46.4752 24.282 45.6113 24 44.7244 24C43.8375 24 42.9736 24.282 42.2576 24.8053C40.9532 25.77 39.4576 26.4444 37.871 26.7834C36.2845 27.1223 34.6438 27.1179 33.0591 26.7704C32.4484 26.6385 31.816 26.6452 31.2082 26.7899C30.6004 26.9346 30.0328 27.2137 29.547 27.6066C29.0674 27.9957 28.6799 28.4862 28.4124 29.0428C28.1449 29.5995 28.0041 30.2085 28 30.8261V44.9164C27.9968 47.9146 28.69 50.8727 30.025 53.5573C31.3601 56.2419 33.3005 58.5797 35.6932 60.3865L42.2576 65.1947C42.9736 65.718 43.8375 66 44.7244 66C45.6113 66 46.4752 65.718 47.1913 65.1947L53.7556 60.3447C56.1499 58.5489 58.0921 56.2192 59.4277 53.5408C60.7633 50.8624 61.4553 47.9093 61.4488 44.9164V30.8261C61.4448 30.2085 61.3039 29.5995 61.0364 29.0428C60.7689 28.4862 60.3815 27.9957 59.9018 27.6066C59.4161 27.2137 58.8485 26.9346 58.2407 26.7899C57.6329 26.6452 57.0004 26.6385 56.3897 26.7704ZM53.0866 44.9164C53.0498 46.5324 52.6558 48.1202 51.933 49.5659C51.2101 51.0117 50.1762 52.2795 48.9055 53.2786L44.7244 56.289L40.5433 53.2786C39.2726 52.2795 38.2388 51.0117 37.5159 49.5659C36.793 48.1202 36.399 46.5324 36.3622 44.9164V35.3835C39.2865 35.2521 42.1441 34.4662 44.7244 33.0839C47.3047 34.4662 50.1623 35.2521 53.0866 35.3835V44.9164Z" fill="white" stroke="#4D30FF" stroke-width="4" mask="url(#path-2-inside-1)"/>
</svg>
