<svg width="176" height="156" viewBox="0 0 176 156" fill="none" xmlns="http://www.w3.org/2000/svg">
<path fill-rule="evenodd" clip-rule="evenodd" d="M152.288 40.2702C152.288 40.2702 100.152 16.6773 64.5189 37.25C28.8862 57.8226 23.25 114.77 23.25 114.77C23.25 114.77 75.3862 138.363 111.019 117.79C146.652 97.2177 152.288 40.2702 152.288 40.2702ZM117.216 60.5191C107.873 44.3376 87.1164 38.8313 70.853 48.2209C54.5896 57.6106 48.9796 78.34 58.3219 94.5214C67.6643 110.703 88.4215 116.209 104.685 106.819C120.948 97.4298 126.558 76.7005 117.216 60.5191ZM78.0756 60.7309C87.3951 55.3502 99.2896 58.5055 104.643 67.7779C109.996 77.0503 106.782 88.9289 97.4622 94.3095C88.1427 99.6901 76.2482 96.5349 70.8948 87.2625C65.5413 77.9901 68.7561 66.1115 78.0756 60.7309Z" fill="#27D583"/>
</svg>
