<svg width="128" height="18" viewBox="0 0 128 18" fill="none" xmlns="http://www.w3.org/2000/svg">
<path d="M18.9468 17.5266H15.1596V10.6623H3.78721V17.5266H0V0.473401H3.78721V7.34848H15.1596V0.473401H18.9468V17.5266Z" fill="#4D30FF"/>
<path d="M31.5242 18C29.6091 18 27.8625 17.6091 26.2845 16.8273C24.7065 16.0454 23.4477 14.9767 22.5081 13.621C21.5756 12.2654 21.1094 10.7268 21.1094 9.00538C21.1094 7.28392 21.5756 5.74537 22.5081 4.38972C23.4477 3.0269 24.7065 1.95457 26.2845 1.17274C27.8625 0.390915 29.6091 0 31.5242 0C33.4465 0 35.1931 0.390915 36.7639 1.17274C38.3419 1.95457 39.6007 3.0269 40.5403 4.38972C41.48 5.74537 41.9498 7.28392 41.9498 9.00538C41.9498 10.7268 41.48 12.2654 40.5403 13.621C39.6007 14.9767 38.3419 16.0454 36.7639 16.8273C35.1931 17.6091 33.4465 18 31.5242 18ZM31.5242 14.3957C32.6862 14.3957 33.7693 14.1841 34.7735 13.7609C35.7848 13.3377 36.6025 12.7244 37.2265 11.9211C37.8506 11.1178 38.1626 10.1458 38.1626 9.00538C38.1626 7.85774 37.8506 6.88225 37.2265 6.0789C36.6025 5.27555 35.7848 4.66228 34.7735 4.23909C33.7693 3.8159 32.6862 3.6043 31.5242 3.6043C30.3622 3.6043 29.2756 3.81949 28.2642 4.24985C27.26 4.67304 26.4459 5.2899 25.8219 6.10042C25.205 6.90377 24.8966 7.87209 24.8966 9.00538C24.8966 10.1315 25.205 11.0998 25.8219 11.9103C26.4459 12.7137 27.26 13.3305 28.2642 13.7609C29.2756 14.1841 30.3622 14.3957 31.5242 14.3957Z" fill="#4D30FF"/>
<path d="M51.9988 18C50.7221 18 49.5386 17.8458 48.4483 17.5374C47.358 17.2289 46.3969 16.8308 45.5648 16.3431C44.74 15.8482 44.0765 15.3066 43.5744 14.7185L45.9307 12.1148C46.2319 12.4447 46.6623 12.8069 47.2218 13.2014C47.7884 13.5959 48.4698 13.9438 49.266 14.2451C50.0693 14.5392 50.9731 14.6862 51.9773 14.6862C52.9313 14.6862 53.7848 14.5463 54.538 14.2666C55.2911 13.9797 55.8828 13.639 56.3132 13.2445C56.7507 12.85 56.9695 12.4877 56.9695 12.1578C56.9695 11.7561 56.7758 11.462 56.3885 11.2756C56.0012 11.0891 55.4848 10.9564 54.8392 10.8775C54.1937 10.7986 53.4692 10.7376 52.6659 10.6946C51.9056 10.6587 51.1237 10.6013 50.3204 10.5224C49.5242 10.4363 48.7531 10.2965 48.0072 10.1028C47.2684 9.90914 46.6013 9.62941 46.006 9.2636C45.4106 8.89062 44.9336 8.3957 44.575 7.77884C44.2235 7.15481 44.0478 6.3694 44.0478 5.42259C44.0478 4.49014 44.367 3.61148 45.0054 2.78661C45.6438 1.96175 46.5583 1.29109 47.749 0.774656C48.9396 0.258219 50.3562 0 51.9988 0C53.2684 0 54.3945 0.139868 55.3772 0.419605C56.3598 0.69217 57.217 1.05439 57.9486 1.50628C58.6802 1.95099 59.3007 2.44232 59.8099 2.98027L57.4214 5.37956C57.0126 5.02092 56.5678 4.68739 56.0873 4.37896C55.6139 4.07053 55.0544 3.81949 54.4088 3.62582C53.7705 3.43216 52.9886 3.33533 52.0634 3.33533C50.887 3.33533 49.8255 3.55768 48.8787 4.00239C47.939 4.4471 47.4692 4.9205 47.4692 5.42259C47.4692 5.88165 47.6844 6.22594 48.1148 6.45547C48.5523 6.685 49.1297 6.85714 49.847 6.97191C50.5643 7.0795 51.3568 7.16916 52.2247 7.24088C53.1644 7.31978 54.1148 7.43455 55.0759 7.58518C56.0442 7.72863 56.9372 7.96533 57.7549 8.29528C58.5726 8.61805 59.2325 9.08428 59.7346 9.69396C60.2439 10.3036 60.4985 11.1249 60.4985 12.1578C60.4985 13.1763 60.1614 14.1303 59.4871 15.0197C58.8201 15.9091 57.8518 16.63 56.5822 17.1823C55.3198 17.7274 53.792 18 51.9988 18Z" fill="#4D30FF"/>
<path d="M73.4848 17.5266H69.6975V3.78721H62.1231V0.473401H81.0699V3.78721H73.4848V17.5266Z" fill="#4D30FF"/>
<path d="M87.0197 17.5266H83.2325V0.473401H87.0197V17.5266Z" fill="#4D30FF"/>
<path d="M95.9928 11.1464L92.9587 14.0406V17.5266H89.1715V0.473401H92.9587V9.39271L102.298 0.473401H107.172L98.2415 9.00538L107.172 17.5266H102.663L95.9928 11.1464Z" fill="#4D30FF"/>
<path d="M117.059 18C115.144 18 113.397 17.6091 111.819 16.8273C110.241 16.0454 108.983 14.9767 108.043 13.621C107.111 12.2654 106.644 10.7268 106.644 9.00538C106.644 7.28392 107.111 5.74537 108.043 4.38972C108.983 3.0269 110.241 1.95457 111.819 1.17274C113.397 0.390915 115.144 0 117.059 0C118.981 0 120.728 0.390915 122.299 1.17274C123.877 1.95457 125.136 3.0269 126.075 4.38972C127.015 5.74537 127.485 7.28392 127.485 9.00538C127.485 10.7268 127.015 12.2654 126.075 13.621C125.136 14.9767 123.877 16.0454 122.299 16.8273C120.728 17.6091 118.981 18 117.059 18ZM117.059 14.3957C118.221 14.3957 119.304 14.1841 120.308 13.7609C121.32 13.3377 122.137 12.7244 122.762 11.9211C123.386 11.1178 123.698 10.1458 123.698 9.00538C123.698 7.85774 123.386 6.88225 122.762 6.0789C122.137 5.27555 121.32 4.66228 120.308 4.23909C119.304 3.8159 118.221 3.6043 117.059 3.6043C115.897 3.6043 114.811 3.81949 113.799 4.24985C112.795 4.67304 111.981 5.2899 111.357 6.10042C110.74 6.90377 110.432 7.87209 110.432 9.00538C110.432 10.1315 110.74 11.0998 111.357 11.9103C111.981 12.7137 112.795 13.3305 113.799 13.7609C114.811 14.1841 115.897 14.3957 117.059 14.3957Z" fill="#4D30FF"/>
</svg>
