<svg width="665" height="435" viewBox="0 0 665 435" fill="none" xmlns="http://www.w3.org/2000/svg">
<rect x="460" width="90" height="90" rx="4" fill="#F8FAFF"/>
<rect x="575" width="90" height="90" rx="4" fill="#F8FAFF"/>
<rect x="345" width="90" height="90" rx="4" fill="#4D30FF"/>
<path d="M390 25C386.044 25 382.178 26.173 378.889 28.3706C375.6 30.5682 373.036 33.6918 371.522 37.3463C370.009 41.0009 369.613 45.0222 370.384 48.9018C371.156 52.7814 373.061 56.3451 375.858 59.1421C378.655 61.9392 382.219 63.844 386.098 64.6157C389.978 65.3874 393.999 64.9913 397.654 63.4776C401.308 61.9638 404.432 59.4004 406.629 56.1114C408.827 52.8224 410 48.9556 410 45C410 39.6957 407.893 34.6086 404.142 30.8579C400.391 27.1071 395.304 25 390 25ZM390 62.1428C387.843 62.1428 385.543 59.2857 384.143 54.5714C386.081 54.8635 388.04 55.0068 390 55C391.96 55.0068 393.919 54.8635 395.857 54.5714C394.457 59.2857 392.157 62.1428 390 62.1428ZM390 52.1429C387.797 52.1463 385.598 51.9551 383.429 51.5714C382.667 47.2236 382.667 42.7764 383.429 38.4286C387.776 37.6667 392.224 37.6667 396.571 38.4286C396.955 40.5979 397.146 42.797 397.143 45C397.146 47.203 396.955 49.4021 396.571 51.5714C394.402 51.9551 392.203 52.1463 390 52.1429ZM380.429 50.8571C375.714 49.4571 372.857 47.1571 372.857 45C372.857 42.8429 375.714 40.5429 380.429 39.1429C380.136 41.0814 379.993 43.0395 380 45C379.993 46.9605 380.136 48.9186 380.429 50.8571ZM390 27.8571C392.157 27.8571 394.457 30.7143 395.857 35.4286C393.919 35.1365 391.96 34.9932 390 35C388.04 34.9932 386.081 35.1365 384.143 35.4286C385.543 30.7143 387.843 27.8571 390 27.8571ZM399.571 39.1429C404.286 40.5429 407.143 42.8429 407.143 45C407.143 47.1571 404.286 49.4571 399.571 50.8571C399.864 48.9186 400.007 46.9605 400 45C400.007 43.0395 399.864 41.0814 399.571 39.1429ZM406.029 38.9714C403.854 37.619 401.461 36.6524 398.957 36.1143C398.397 33.6056 397.406 31.2131 396.029 29.0429C398.3 29.9011 400.365 31.229 402.088 32.9399C403.811 34.6508 405.154 36.7061 406.029 38.9714ZM383.971 28.9714C382.611 31.1684 381.645 33.5855 381.114 36.1143C378.61 36.6524 376.218 37.619 374.043 38.9714C374.901 36.6999 376.229 34.635 377.94 32.9118C379.651 31.1886 381.706 29.8459 383.971 28.9714ZM373.971 51.0286C376.163 52.4136 378.581 53.4048 381.114 53.9571C381.652 56.4612 382.619 58.8535 383.971 61.0286C381.693 60.1625 379.624 58.8236 377.9 57.1C376.176 55.3763 374.837 53.3071 373.971 51.0286ZM396.029 61.0286C397.406 58.8583 398.397 56.4658 398.957 53.9571C401.466 53.3969 403.858 52.406 406.029 51.0286C405.163 53.3071 403.824 55.3763 402.1 57.1C400.376 58.8236 398.307 60.1625 396.029 61.0286Z" fill="white"/>
<rect x="230" width="90" height="90" rx="4" fill="#F8FAFF"/>
<rect x="115" width="90" height="90" rx="4" fill="#4D30FF"/>
<path d="M159.964 26.3541L166.022 38.6288L179.568 40.5972L169.766 50.1517L172.08 63.6429L159.964 57.2733L147.848 63.6429L150.162 50.1517L140.36 40.5972L153.906 38.6288L159.964 26.3541Z" fill="white"/>
<path d="M158.789 27.0411C159.716 28.9202 160.644 30.7993 161.571 32.6784C162.646 34.8559 163.721 37.0334 164.795 39.2109C165.192 40.0158 166.005 39.9915 166.759 40.101C168.056 40.2896 169.354 40.478 170.651 40.6666C173.335 41.0566 176.019 41.4466 178.703 41.8366C178.871 41.861 179.039 41.8854 179.207 41.9098C179.006 41.1514 178.806 40.3931 178.606 39.6347C177.105 41.0973 175.605 42.56 174.104 44.0227C172.365 45.7176 170.627 47.4125 168.888 49.1075C168.691 49.2991 168.53 49.514 168.454 49.7898C168.375 50.0767 168.426 50.349 168.474 50.6289C168.528 50.946 168.582 51.2632 168.637 51.5803C168.857 52.866 169.078 54.1518 169.298 55.4376C169.758 58.1197 170.218 60.8018 170.678 63.4839C170.708 63.6575 170.738 63.8312 170.768 64.0048C171.434 63.4924 172.101 62.98 172.767 62.4677C170.912 61.4925 169.058 60.5174 167.203 59.5423C165.054 58.4123 162.904 57.2824 160.755 56.1524C160.507 56.0221 160.257 55.9122 159.964 55.9122C159.671 55.9122 159.422 56.0221 159.174 56.1524C158.889 56.3021 158.604 56.4519 158.319 56.6016C157.165 57.2086 156.01 57.8157 154.855 58.4228C152.447 59.6891 150.038 60.9554 147.629 62.2217C147.473 62.3037 147.317 62.3857 147.161 62.4677C147.828 62.9801 148.494 63.4925 149.161 64.0049C149.515 61.9396 149.869 59.8742 150.224 57.8089C150.634 55.4156 151.045 53.0223 151.455 50.629C151.503 50.3491 151.554 50.0769 151.475 49.7899C151.399 49.5141 151.238 49.2992 151.041 49.1076C150.811 48.883 150.58 48.6585 150.35 48.4339C149.416 47.5233 148.481 46.6126 147.547 45.7021C145.599 43.8026 143.65 41.9031 141.701 40.0037C141.575 39.8807 141.449 39.7577 141.323 39.6348C141.123 40.3931 140.922 41.1515 140.722 41.9099C142.796 41.6085 144.87 41.3072 146.943 41.0059C149.346 40.6567 151.749 40.3075 154.152 39.9583C154.983 39.8377 155.254 38.9676 155.573 38.3204C156.153 37.1449 156.733 35.9693 157.314 34.7938C158.514 32.3616 159.714 29.9294 160.915 27.4973C160.99 27.3453 161.065 27.1933 161.14 27.0413C161.468 26.3759 161.324 25.5732 160.651 25.1789C160.045 24.8241 159.117 25.0022 158.789 25.6672C157.861 27.5463 156.934 29.4254 156.007 31.3045C154.932 33.482 153.858 35.6595 152.783 37.837C152.766 37.872 152.748 37.907 152.731 37.9419C153.002 37.7334 153.273 37.5249 153.545 37.3164C151.471 37.6177 149.397 37.919 147.323 38.2203C144.92 38.5695 142.517 38.9187 140.114 39.2679C140.076 39.2735 140.037 39.2791 139.999 39.2847C139.546 39.3504 139.162 39.8219 139.048 40.2354C138.92 40.6992 139.052 41.2222 139.398 41.5598C140.898 43.0225 142.399 44.4851 143.9 45.9478C145.638 47.6428 147.377 49.3377 149.116 51.0327C149.144 51.0599 149.172 51.0872 149.2 51.1144C149.083 50.6729 148.966 50.2315 148.85 49.79C148.496 51.8554 148.141 53.9207 147.787 55.986C147.377 58.3793 146.966 60.7726 146.556 63.1659C146.549 63.2043 146.543 63.2428 146.536 63.2813C146.451 63.7736 146.517 64.2365 146.886 64.6056C147.333 65.0526 147.99 65.105 148.535 64.8184C150.39 63.8433 152.245 62.8682 154.1 61.8931C156.249 60.7631 158.398 59.6332 160.548 58.5032C160.582 58.4851 160.617 58.467 160.651 58.4488C160.193 58.4488 159.735 58.4488 159.277 58.4488C161.132 59.4239 162.987 60.399 164.842 61.3741C166.991 62.5041 169.14 63.634 171.29 64.764C171.324 64.7822 171.359 64.8003 171.393 64.8184C171.829 65.0477 172.333 65.073 172.767 64.8184C173.333 64.4873 173.498 63.8918 173.393 63.2813C173.039 61.2159 172.684 59.1506 172.33 57.0853C171.92 54.692 171.509 52.2986 171.099 49.9054C171.092 49.8669 171.086 49.8285 171.079 49.79C170.962 50.2315 170.846 50.6729 170.729 51.1144C172.229 49.6517 173.73 48.189 175.231 46.7264C176.969 45.0315 178.708 43.3365 180.447 41.6416C180.475 41.6143 180.503 41.5871 180.531 41.5599C180.877 41.2223 181.009 40.6993 180.881 40.2355C180.767 39.822 180.383 39.3505 179.93 39.2848C177.857 38.9835 175.783 38.6821 173.709 38.3808C171.306 38.0316 168.903 37.6824 166.5 37.3332C166.461 37.3276 166.423 37.3221 166.384 37.3164C166.655 37.525 166.927 37.7335 167.198 37.942C166.27 36.0629 165.343 34.1838 164.416 32.3047C163.341 30.1272 162.266 27.9497 161.192 25.7722C161.174 25.7372 161.157 25.7022 161.14 25.6672C160.812 25.0022 159.883 24.8241 159.277 25.1789C158.604 25.5731 158.461 26.3757 158.789 27.0411Z" fill="white"/>
<mask id="mask0" mask-type="alpha" maskUnits="userSpaceOnUse" x="139" y="25" width="42" height="40">
<path d="M159.964 26.3541L166.022 38.6288L179.568 40.5972L169.766 50.1517L172.08 63.6429L159.964 57.2733L147.848 63.6429L150.162 50.1517L140.36 40.5972L153.906 38.6288L159.964 26.3541Z" fill="white"/>
<path d="M158.789 27.0411C159.716 28.9202 160.644 30.7993 161.571 32.6784C162.646 34.8559 163.721 37.0334 164.795 39.2109C165.192 40.0158 166.005 39.9915 166.759 40.101C168.056 40.2896 169.354 40.478 170.651 40.6666C173.335 41.0566 176.019 41.4466 178.703 41.8366C178.871 41.861 179.039 41.8854 179.207 41.9098C179.006 41.1514 178.806 40.3931 178.606 39.6347C177.105 41.0973 175.605 42.56 174.104 44.0227C172.365 45.7176 170.627 47.4125 168.888 49.1075C168.691 49.2991 168.53 49.514 168.454 49.7898C168.375 50.0767 168.426 50.349 168.474 50.6289C168.528 50.946 168.582 51.2632 168.637 51.5803C168.857 52.866 169.078 54.1518 169.298 55.4376C169.758 58.1197 170.218 60.8018 170.678 63.4839C170.708 63.6575 170.738 63.8312 170.768 64.0048C171.434 63.4924 172.101 62.98 172.767 62.4677C170.912 61.4925 169.058 60.5174 167.203 59.5423C165.054 58.4123 162.904 57.2824 160.755 56.1524C160.507 56.0221 160.257 55.9122 159.964 55.9122C159.671 55.9122 159.422 56.0221 159.174 56.1524C158.889 56.3021 158.604 56.4519 158.319 56.6016C157.165 57.2086 156.01 57.8157 154.855 58.4228C152.447 59.6891 150.038 60.9554 147.629 62.2217C147.473 62.3037 147.317 62.3857 147.161 62.4677C147.828 62.9801 148.494 63.4925 149.161 64.0049C149.515 61.9396 149.869 59.8742 150.224 57.8089C150.634 55.4156 151.045 53.0223 151.455 50.629C151.503 50.3491 151.554 50.0769 151.475 49.7899C151.399 49.5141 151.238 49.2992 151.041 49.1076C150.811 48.883 150.58 48.6585 150.35 48.4339C149.416 47.5233 148.481 46.6126 147.547 45.7021C145.599 43.8026 143.65 41.9031 141.701 40.0037C141.575 39.8807 141.449 39.7577 141.323 39.6348C141.123 40.3931 140.922 41.1515 140.722 41.9099C142.796 41.6085 144.87 41.3072 146.943 41.0059C149.346 40.6567 151.749 40.3075 154.152 39.9583C154.983 39.8377 155.254 38.9676 155.573 38.3204C156.153 37.1449 156.733 35.9693 157.314 34.7938C158.514 32.3616 159.714 29.9294 160.915 27.4973C160.99 27.3453 161.065 27.1933 161.14 27.0413C161.468 26.3759 161.324 25.5732 160.651 25.1789C160.045 24.8241 159.117 25.0022 158.789 25.6672C157.861 27.5463 156.934 29.4254 156.007 31.3045C154.932 33.482 153.858 35.6595 152.783 37.837C152.766 37.872 152.748 37.907 152.731 37.9419C153.002 37.7334 153.273 37.5249 153.545 37.3164C151.471 37.6177 149.397 37.919 147.323 38.2203C144.92 38.5695 142.517 38.9187 140.114 39.2679C140.076 39.2735 140.037 39.2791 139.999 39.2847C139.546 39.3504 139.162 39.8219 139.048 40.2354C138.92 40.6992 139.052 41.2222 139.398 41.5598C140.898 43.0225 142.399 44.4851 143.9 45.9478C145.638 47.6428 147.377 49.3377 149.116 51.0327C149.144 51.0599 149.172 51.0872 149.2 51.1144C149.083 50.6729 148.966 50.2315 148.85 49.79C148.496 51.8554 148.141 53.9207 147.787 55.986C147.377 58.3793 146.966 60.7726 146.556 63.1659C146.549 63.2043 146.543 63.2428 146.536 63.2813C146.451 63.7736 146.517 64.2365 146.886 64.6056C147.333 65.0526 147.99 65.105 148.535 64.8184C150.39 63.8433 152.245 62.8682 154.1 61.8931C156.249 60.7631 158.398 59.6332 160.548 58.5032C160.582 58.4851 160.617 58.467 160.651 58.4488C160.193 58.4488 159.735 58.4488 159.277 58.4488C161.132 59.4239 162.987 60.399 164.842 61.3741C166.991 62.5041 169.14 63.634 171.29 64.764C171.324 64.7822 171.359 64.8003 171.393 64.8184C171.829 65.0477 172.333 65.073 172.767 64.8184C173.333 64.4873 173.498 63.8918 173.393 63.2813C173.039 61.2159 172.684 59.1506 172.33 57.0853C171.92 54.692 171.509 52.2986 171.099 49.9054C171.092 49.8669 171.086 49.8285 171.079 49.79C170.962 50.2315 170.846 50.6729 170.729 51.1144C172.229 49.6517 173.73 48.189 175.231 46.7264C176.969 45.0315 178.708 43.3365 180.447 41.6416C180.475 41.6143 180.503 41.5871 180.531 41.5599C180.877 41.2223 181.009 40.6993 180.881 40.2355C180.767 39.822 180.383 39.3505 179.93 39.2848C177.857 38.9835 175.783 38.6821 173.709 38.3808C171.306 38.0316 168.903 37.6824 166.5 37.3332C166.461 37.3276 166.423 37.3221 166.384 37.3164C166.655 37.525 166.927 37.7335 167.198 37.942C166.27 36.0629 165.343 34.1838 164.416 32.3047C163.341 30.1272 162.266 27.9497 161.192 25.7722C161.174 25.7372 161.157 25.7022 161.14 25.6672C160.812 25.0022 159.883 24.8241 159.277 25.1789C158.604 25.5731 158.461 26.3757 158.789 27.0411Z" fill="white"/>
</mask>
<g mask="url(#mask0)">
<rect x="160" y="23" width="26" height="49" fill="#D2CBFF"/>
</g>
<rect width="90" height="90" rx="4" fill="#F8FAFF"/>
<rect x="575" y="115" width="90" height="90" rx="4" fill="#27D583"/>
<path fill-rule="evenodd" clip-rule="evenodd" d="M631.137 147H615.932L604.909 162.031C604.788 162.196 604.906 162.429 605.111 162.429H615.569C615.771 162.429 615.889 162.655 615.774 162.821L604.047 179.761C603.886 179.993 604.174 180.272 604.401 180.104L635.436 157.165C635.63 157.022 635.528 156.714 635.287 156.714H623.716C623.505 156.714 623.389 156.469 623.523 156.306L631.137 147Z" fill="white"/>
<mask id="mask1" mask-type="alpha" maskUnits="userSpaceOnUse" x="612" y="141" width="25" height="6">
<rect x="612.189" y="141" width="24" height="6" fill="#C4C4C4"/>
</mask>
<g mask="url(#mask1)">
<path d="M620.332 141H636.046L623.189 156.714H636.046L603.189 181L616.046 162.429H604.617L620.332 141Z" fill="white" fill-opacity="0.75"/>
</g>
<rect x="460" y="115" width="90" height="90" rx="4" fill="#4D30FF"/>
<path d="M510 158.667C507.054 158.667 504.667 156.279 504.667 153.333V140H494C489.588 139.994 486.006 143.566 486 147.979C486 147.986 486 147.993 486 148V172C485.994 176.412 489.566 179.994 493.979 180C493.986 180 493.993 180 494 180H515.333C519.746 180.006 523.327 176.434 523.333 172.021C523.333 172.014 523.333 172.007 523.333 172V158.667H510Z" fill="#D2CBFF"/>
<path d="M523.333 158.667H510C507.055 158.667 504.667 156.279 504.667 153.333V140L523.333 158.667Z" fill="white"/>
<rect x="345" y="115" width="90" height="90" rx="4" fill="#F8FAFF"/>
<rect x="230" y="115" width="90" height="90" rx="4" fill="#FF6D30"/>
<path d="M295.777 148.245L278.933 165.089C276.338 167.691 272.126 167.697 269.524 165.102C269.52 165.098 269.515 165.094 269.511 165.089L252.667 148.245C253.766 145.927 256.101 144.448 258.667 144.445H289.777C292.343 144.448 294.678 145.927 295.777 148.245Z" fill="#FFE9E0"/>
<path d="M295.777 148.245L278.933 165.089C276.338 167.691 272.126 167.697 269.524 165.102C269.52 165.098 269.515 165.094 269.511 165.089L252.667 148.245C252.23 149.138 252.002 150.118 252 151.112V173.333C252.011 177.011 254.989 179.989 258.667 180H289.777C293.455 179.989 296.433 177.011 296.444 173.333V151.112C296.442 150.118 296.214 149.138 295.777 148.245Z" fill="#FFD3C0"/>
<path d="M287.937 160C287.347 160 286.782 159.766 286.366 159.349L279.317 152.303C276.503 149.488 276.503 144.925 279.318 142.111C281.6 139.829 285.12 139.343 287.935 140.919C290.761 139.396 294.248 139.879 296.554 142.111C299.365 144.927 299.365 149.486 296.554 152.302L289.508 159.349C289.091 159.766 288.526 160 287.937 160Z" fill="white"/>
<rect x="115" y="115" width="90" height="90" rx="4" fill="#F8FAFF"/>
<rect y="115" width="90" height="90" rx="4" fill="#F8FAFF"/>
<rect x="345" y="230" width="90" height="90" rx="4" fill="#27D583"/>
<path d="M374 295C372.813 295 371.653 294.648 370.667 293.989C369.68 293.33 368.911 292.392 368.457 291.296C368.003 290.2 367.884 288.993 368.115 287.829C368.347 286.666 368.918 285.596 369.757 284.757C370.596 283.918 371.666 283.347 372.829 283.115C373.993 282.884 375.2 283.003 376.296 283.457C377.392 283.911 378.33 284.68 378.989 285.667C379.648 286.653 380 287.813 380 289C379.998 290.591 379.366 292.116 378.241 293.241C377.116 294.366 375.591 294.998 374 295Z" fill="#E9FBF2"/>
<path d="M386.559 281.038C386.425 280.812 386.248 280.615 386.037 280.457C385.827 280.3 385.588 280.186 385.333 280.121C385.079 280.056 384.814 280.042 384.554 280.08C384.294 280.117 384.044 280.206 383.818 280.34L377.462 284.117C378.582 284.917 379.393 286.079 379.758 287.406L385.861 283.779C386.317 283.508 386.647 283.067 386.778 282.553C386.908 282.039 386.83 281.494 386.559 281.038Z" fill="#C9F4E0"/>
<path d="M406 295C404.813 295 403.653 294.648 402.667 293.989C401.68 293.33 400.911 292.392 400.457 291.296C400.003 290.2 399.884 288.993 400.115 287.829C400.347 286.666 400.918 285.596 401.757 284.757C402.596 283.918 403.666 283.347 404.829 283.115C405.993 282.884 407.2 283.003 408.296 283.457C409.392 283.911 410.33 284.68 410.989 285.667C411.648 286.653 412 287.813 412 289C411.998 290.591 411.366 292.116 410.241 293.241C409.116 294.366 407.591 294.998 406 295Z" fill="#E9FBF2"/>
<path d="M402.538 284.117L396.182 280.34C395.956 280.206 395.706 280.117 395.446 280.08C395.186 280.042 394.921 280.056 394.666 280.121C394.412 280.186 394.173 280.3 393.962 280.458C393.752 280.615 393.575 280.812 393.44 281.038C393.306 281.264 393.218 281.514 393.18 281.774C393.143 282.034 393.157 282.299 393.222 282.553C393.287 282.808 393.401 283.047 393.558 283.257C393.716 283.468 393.913 283.645 394.139 283.779L400.242 287.406C400.607 286.079 401.418 284.917 402.538 284.117Z" fill="#C9F4E0"/>
<path d="M390 267C388.813 267 387.653 266.648 386.667 265.989C385.68 265.33 384.911 264.392 384.457 263.296C384.003 262.2 383.884 260.993 384.115 259.829C384.347 258.666 384.918 257.596 385.757 256.757C386.596 255.918 387.666 255.347 388.829 255.115C389.993 254.884 391.2 255.003 392.296 255.457C393.392 255.911 394.33 256.68 394.989 257.667C395.648 258.653 396 259.813 396 261C395.998 262.591 395.366 264.116 394.241 265.241C393.116 266.366 391.591 266.998 390 267Z" fill="#E9FBF2"/>
<path d="M390 267C389.317 266.993 388.64 266.868 388 266.631V273C388 273.53 388.211 274.039 388.586 274.414C388.961 274.789 389.47 275 390 275C390.53 275 391.039 274.789 391.414 274.414C391.789 274.039 392 273.53 392 273V266.631C391.36 266.869 390.683 266.993 390 267Z" fill="#C9F4E0"/>
<path d="M390 285C393.314 285 396 282.314 396 279C396 275.686 393.314 273 390 273C386.686 273 384 275.686 384 279C384 282.314 386.686 285 390 285Z" fill="white"/>
<path d="M390 287C388.418 287 386.871 286.531 385.555 285.652C384.24 284.773 383.214 283.523 382.609 282.061C382.003 280.6 381.845 278.991 382.154 277.439C382.462 275.887 383.224 274.462 384.343 273.343C385.462 272.224 386.887 271.462 388.439 271.154C389.991 270.845 391.6 271.003 393.061 271.609C394.523 272.214 395.773 273.24 396.652 274.555C397.531 275.871 398 277.418 398 279C397.998 281.121 397.154 283.155 395.654 284.654C394.155 286.154 392.121 286.998 390 287ZM390 275C389.209 275 388.436 275.235 387.778 275.674C387.12 276.114 386.607 276.738 386.304 277.469C386.002 278.2 385.923 279.004 386.077 279.78C386.231 280.556 386.612 281.269 387.172 281.828C387.731 282.388 388.444 282.769 389.22 282.923C389.996 283.077 390.8 282.998 391.531 282.696C392.262 282.393 392.886 281.88 393.326 281.222C393.765 280.564 394 279.791 394 279C393.999 277.94 393.577 276.923 392.827 276.173C392.077 275.423 391.06 275.001 390 275Z" fill="white"/>
<rect x="115" y="230" width="90" height="90" rx="4" fill="#F8FAFF"/>
<rect x="230" y="230" width="90" height="90" rx="4" fill="#4D30FF"/>
<path d="M267 284C266.604 284 266.218 284.117 265.889 284.337C265.56 284.557 265.304 284.869 265.152 285.235C265.001 285.6 264.961 286.002 265.038 286.39C265.116 286.778 265.306 287.135 265.586 287.414C265.865 287.694 266.222 287.884 266.61 287.962C266.998 288.039 267.4 287.999 267.765 287.848C268.131 287.696 268.443 287.44 268.663 287.111C268.883 286.782 269 286.396 269 286C269 285.47 268.789 284.961 268.414 284.586C268.039 284.211 267.53 284 267 284ZM275 255C267 255 259 257.74 259 263V287C259 292.26 267 295 275 295C283 295 291 292.26 291 287V263C291 257.74 283 255 275 255ZM287 287C287 288.42 282.44 291 275 291C267.56 291 263 288.42 263 287V280.46C266.744 282.24 270.856 283.11 275 283C279.144 283.11 283.256 282.24 287 280.46V287ZM287 275C287 276.42 282.44 279 275 279C267.56 279 263 276.42 263 275V268.46C266.744 270.24 270.856 271.11 275 271C279.144 271.11 283.256 270.24 287 268.46V275ZM275 267C267.56 267 263 264.42 263 263C263 261.58 267.56 259 275 259C282.44 259 287 261.58 287 263C287 264.42 282.44 267 275 267ZM267 272C266.604 272 266.218 272.117 265.889 272.337C265.56 272.557 265.304 272.869 265.152 273.235C265.001 273.6 264.961 274.002 265.038 274.39C265.116 274.778 265.306 275.135 265.586 275.414C265.865 275.694 266.222 275.884 266.61 275.962C266.998 276.039 267.4 275.999 267.765 275.848C268.131 275.696 268.443 275.44 268.663 275.111C268.883 274.782 269 274.396 269 274C269 273.47 268.789 272.961 268.414 272.586C268.039 272.211 267.53 272 267 272Z" fill="white"/>
<rect y="230" width="90" height="90" rx="4" fill="#F8FAFF"/>
<rect x="460" y="230" width="90" height="90" rx="4" fill="#F8FAFF"/>
<rect x="575" y="230" width="90" height="90" rx="4" fill="#F8FAFF"/>
<rect x="345" y="345" width="90" height="90" rx="4" fill="#F8FAFF"/>
<rect x="230" y="345" width="90" height="90" rx="4" fill="#F8FAFF"/>
<rect x="115" y="345" width="90" height="90" rx="4" fill="#F8FAFF"/>
<rect x="575" y="345" width="90" height="90" rx="4" fill="#4D30FF"/>
<mask id="path-44-inside-1" fill="white">
<path d="M631.39 371.77C629.805 372.115 628.165 372.118 626.579 371.779C624.993 371.441 623.497 370.768 622.191 369.805C621.475 369.282 620.611 369 619.724 369C618.838 369 617.974 369.282 617.258 369.805C615.953 370.77 614.458 371.444 612.871 371.783C611.285 372.122 609.644 372.118 608.059 371.77C607.448 371.639 606.816 371.645 606.208 371.79C605.6 371.935 605.033 372.214 604.547 372.607C604.067 372.996 603.68 373.486 603.412 374.043C603.145 374.599 603.004 375.208 603 375.826V389.916C602.997 392.915 603.69 395.873 605.025 398.557C606.36 401.242 608.3 403.58 610.693 405.386L617.258 410.195C617.974 410.718 618.838 411 619.724 411C620.611 411 621.475 410.718 622.191 410.195L628.756 405.345C631.15 403.549 633.092 401.219 634.428 398.541C635.763 395.862 636.455 392.909 636.449 389.916V375.826C636.445 375.208 636.304 374.599 636.036 374.043C635.769 373.486 635.381 372.996 634.902 372.607C634.416 372.214 633.848 371.935 633.241 371.79C632.633 371.645 632 371.639 631.39 371.77ZM628.087 389.916C628.05 391.532 627.656 393.12 626.933 394.566C626.21 396.012 625.176 397.28 623.906 398.279L619.724 401.289L615.543 398.279C614.273 397.28 613.239 396.012 612.516 394.566C611.793 393.12 611.399 391.532 611.362 389.916V380.383C614.287 380.252 617.144 379.466 619.724 378.084C622.305 379.466 625.162 380.252 628.087 380.383V389.916Z"/>
</mask>
<path d="M631.39 371.77C629.805 372.115 628.165 372.118 626.579 371.779C624.993 371.441 623.497 370.768 622.191 369.805C621.475 369.282 620.611 369 619.724 369C618.838 369 617.974 369.282 617.258 369.805C615.953 370.77 614.458 371.444 612.871 371.783C611.285 372.122 609.644 372.118 608.059 371.77C607.448 371.639 606.816 371.645 606.208 371.79C605.6 371.935 605.033 372.214 604.547 372.607C604.067 372.996 603.68 373.486 603.412 374.043C603.145 374.599 603.004 375.208 603 375.826V389.916C602.997 392.915 603.69 395.873 605.025 398.557C606.36 401.242 608.3 403.58 610.693 405.386L617.258 410.195C617.974 410.718 618.838 411 619.724 411C620.611 411 621.475 410.718 622.191 410.195L628.756 405.345C631.15 403.549 633.092 401.219 634.428 398.541C635.763 395.862 636.455 392.909 636.449 389.916V375.826C636.445 375.208 636.304 374.599 636.036 374.043C635.769 373.486 635.381 372.996 634.902 372.607C634.416 372.214 633.848 371.935 633.241 371.79C632.633 371.645 632 371.639 631.39 371.77ZM628.087 389.916C628.05 391.532 627.656 393.12 626.933 394.566C626.21 396.012 625.176 397.28 623.906 398.279L619.724 401.289L615.543 398.279C614.273 397.28 613.239 396.012 612.516 394.566C611.793 393.12 611.399 391.532 611.362 389.916V380.383C614.287 380.252 617.144 379.466 619.724 378.084C622.305 379.466 625.162 380.252 628.087 380.383V389.916Z" fill="white" stroke="#4D30FF" stroke-width="4" mask="url(#path-44-inside-1)"/>
<rect y="345" width="90" height="90" rx="4" fill="#FF6D30"/>
<path d="M51.3614 389.184C50.5205 389.367 49.6502 389.368 48.8086 389.188C47.9669 389.009 47.1733 388.652 46.4805 388.141C46.1005 387.863 45.6421 387.714 45.1715 387.714C44.7009 387.714 44.2425 387.863 43.8625 388.141C43.1704 388.653 42.3768 389.011 41.5349 389.191C40.693 389.37 39.8225 389.368 38.9816 389.184C38.6575 389.114 38.3219 389.117 37.9994 389.194C37.6769 389.271 37.3757 389.419 37.1179 389.627C36.8634 389.834 36.6578 390.094 36.5159 390.389C36.374 390.685 36.2992 391.008 36.2971 391.336V398.812C36.2953 400.403 36.6632 401.973 37.3716 403.398C38.08 404.822 39.1096 406.063 40.3793 407.021L43.8625 409.573C44.2425 409.85 44.7009 410 45.1715 410C45.6421 410 46.1005 409.85 46.4805 409.573L49.9637 406.999C51.2342 406.046 52.2648 404.81 52.9735 403.389C53.6822 401.968 54.0494 400.401 54.0459 398.812V391.336C54.0438 391.008 53.969 390.685 53.8271 390.389C53.6852 390.094 53.4796 389.834 53.2251 389.627C52.9673 389.419 52.6661 389.271 52.3436 389.194C52.0211 389.117 51.6855 389.114 51.3614 389.184ZM49.6087 398.812C49.5892 399.67 49.3801 400.512 48.9966 401.28C48.613 402.047 48.0644 402.72 47.3901 403.25L45.1715 404.847L42.9529 403.25C42.2786 402.72 41.73 402.047 41.3464 401.28C40.9629 400.512 40.7538 399.67 40.7343 398.812V393.754C42.286 393.684 43.8023 393.267 45.1715 392.534C46.5407 393.267 48.057 393.684 49.6087 393.754V398.812Z" fill="white"/>
<path d="M59.415 379.333C58.0594 376.218 55.7198 373.634 52.7549 371.976C49.7899 370.317 46.363 369.677 42.9994 370.153C39.6358 370.629 36.521 372.195 34.1323 374.61C31.7435 377.025 30.2127 380.158 29.7743 383.526C27.9156 383.979 26.253 385.02 25.0342 386.495C23.8154 387.969 23.1057 389.798 23.0109 391.709C22.9161 393.62 23.4413 395.51 24.5082 397.098C25.575 398.686 27.1265 399.886 28.9313 400.521C29.1614 400.592 29.4005 400.629 29.6412 400.632C30.2296 400.726 30.8314 400.582 31.314 400.233C31.7966 399.883 32.1207 399.356 32.2148 398.768C32.309 398.18 32.1655 397.578 31.816 397.095C31.4665 396.613 30.9396 396.289 30.3512 396.194C29.5146 395.892 28.788 395.346 28.2658 394.626C27.7436 393.906 27.4498 393.046 27.4226 392.157C27.4226 390.98 27.8901 389.851 28.7222 389.019C29.5544 388.187 30.683 387.719 31.8598 387.719C32.4482 387.719 33.0126 387.486 33.4286 387.07C33.8447 386.654 34.0784 386.089 34.0784 385.501C34.0841 382.877 35.0198 380.34 36.7192 378.34C38.4186 376.341 40.7717 375.009 43.3605 374.581C45.9494 374.152 48.6062 374.655 50.8591 376.001C53.1119 377.346 54.8149 379.447 55.6655 381.929C55.7923 382.31 56.0203 382.65 56.3251 382.912C56.6299 383.173 57 383.347 57.396 383.415C58.7302 383.657 59.9587 384.3 60.9174 385.259C61.876 386.217 62.519 387.446 62.7602 388.78C63.0015 390.115 62.8295 391.491 62.2674 392.724C61.7052 393.958 60.7797 394.991 59.6146 395.684C59.1027 395.978 58.7286 396.464 58.5747 397.034C58.4208 397.604 58.4995 398.212 58.7938 398.724C59.088 399.236 59.5735 399.61 60.1435 399.764C60.7135 399.918 61.3213 399.839 61.8333 399.545C63.5154 398.568 64.9113 397.167 65.8809 395.481C66.8505 393.794 67.3598 391.883 67.3576 389.938C67.3508 387.551 66.5744 385.23 65.1435 383.319C63.7126 381.409 61.7036 380.011 59.415 379.333Z" fill="#FFDACB"/>
</svg>
