<svg width="268" height="173" viewBox="0 0 268 173" fill="none" xmlns="http://www.w3.org/2000/svg">
<path d="M212.753 123.852C185.714 131.097 161.495 117.379 138.237 101.51C125.916 127.048 111.825 150.896 84.875 158.117C54.6183 166.224 23.4451 148.337 15.3818 118.244C7.31857 88.1518 25.3718 57.0744 55.6284 48.9671C82.6768 41.7196 107.584 55.6672 130.035 70.9016C141.857 46.5057 156.468 21.9473 183.507 14.7022C213.765 6.59444 244.936 24.4824 253 54.5748C261.063 84.6673 242.999 115.747 212.753 123.852ZM147.117 82.7326C168.21 97.2562 188.04 109.203 207.436 104.006C226.774 98.8244 238.332 79.0417 233.201 59.8902C228.072 40.7495 208.168 29.3868 188.83 34.5684C169.145 39.8327 157.931 60.0014 147.117 82.7326ZM60.949 68.8237C41.6128 74.0048 30.0543 93.7967 35.1833 112.938C40.3149 132.09 60.2183 143.441 79.5544 138.26C99.0492 133.037 110.26 112.621 121.152 89.6693C100.408 75.4145 80.6215 63.5524 60.949 68.8237Z" fill="#27D583"/>
</svg>
