<svg width="16" height="15" viewBox="0 0 16 15" fill="none" xmlns="http://www.w3.org/2000/svg">
<path d="M7.91358 14.2581C3.98251 14.2581 0.784546 11.0601 0.784546 7.12903C0.784546 3.19796 3.98251 0 7.91358 0C11.8446 0 15.0426 3.19796 15.0426 7.12903C15.0426 11.0601 11.8446 14.2581 7.91358 14.2581ZM7.91358 0.891129C4.47382 0.891129 1.67567 3.68927 1.67567 7.12903C1.67567 10.5688 4.47382 13.3669 7.91358 13.3669C11.3533 13.3669 14.1515 10.5688 14.1515 7.12903C14.1515 3.68927 11.3533 0.891129 7.91358 0.891129Z" fill="#ADB4C3"/>
<path d="M5.26944 1.57409L5.26944 0.813659C5.26944 0.567707 5.46906 0.368094 5.71501 0.368094C5.96096 0.368094 6.16057 0.567707 6.16057 0.813659L6.16057 1.57409C6.16057 1.91391 6.29246 2.23531 6.53187 2.47948C6.76951 2.71711 7.08972 2.85256 7.43192 2.85731C7.95174 2.86444 8.43889 3.04089 8.84109 3.36585C9.24922 3.71102 9.5231 4.16846 9.62112 4.65918C9.80885 5.52951 10.5657 6.14202 11.4598 6.14202L12.0836 6.14202C12.9747 6.14202 13.4469 5.9165 13.9566 5.19112C14.098 4.99032 14.376 4.94101 14.5774 5.0824C14.7788 5.2238 14.8287 5.50123 14.6861 5.70322C14.0101 6.66624 13.2652 7.03374 12.0836 7.03374L11.4598 7.03374C10.1421 7.03374 9.02704 6.13192 8.749 4.84097C8.67296 4.45719 8.4484 4.20173 8.27314 4.05321C8.03551 3.86073 7.73787 3.7532 7.42003 3.74904C6.84496 3.74131 6.30493 3.51378 5.89858 3.10742C5.49222 2.69216 5.26944 2.14857 5.26944 1.57409Z" fill="#ADB4C3"/>
<path d="M0.78465 7.09621C0.78465 6.96669 0.841089 6.83837 0.949212 6.75045L2.22055 5.71674C3.51566 4.66996 5.38465 4.76442 6.56926 5.93596C7.38137 6.74748 7.65227 8.03249 7.22334 9.12442L7.08552 9.46661C6.91264 9.90267 7.07126 10.4148 7.46157 10.6768C8.07467 11.0772 8.29448 11.9576 7.90892 12.6337L7.33265 13.7605C7.20552 13.9714 6.93165 14.0397 6.72075 13.9126C6.51044 13.7854 6.44331 13.5122 6.56926 13.3013L7.14017 12.184C7.28513 11.9285 7.20908 11.5768 6.96907 11.42C6.23063 10.9227 5.93358 9.96208 6.25736 9.13808L6.39519 8.79529C6.69283 8.03783 6.50569 7.13185 5.94071 6.56806C5.08107 5.71793 3.72181 5.64901 2.78137 6.40885L1.51062 7.44196C1.31992 7.59702 1.03892 7.5685 0.883862 7.3778C0.817325 7.29463 0.78465 7.19542 0.78465 7.09621Z" fill="#ADB4C3"/>
<path d="M9.33939 11.531C9.33939 10.6191 9.80872 9.78973 10.5935 9.31447C11.4779 8.7789 12.7769 8.37908 14.0512 8.7789C14.2859 8.85256 14.419 9.10386 14.3429 9.33734C14.2693 9.57259 14.0192 9.7027 13.7845 9.62903C12.7526 9.30466 11.9884 9.52002 11.0533 10.0779C10.4794 10.4248 10.1563 11.0718 10.2454 11.7395L10.4361 13.3192C10.4628 13.5592 10.2917 13.785 10.0469 13.8147C9.80278 13.8444 9.58059 13.6703 9.55148 13.4261L9.36137 11.8518C9.34652 11.7478 9.33939 11.6397 9.33939 11.531Z" fill="#ADB4C3"/>
</svg>
