<svg width="306" height="52" viewBox="0 0 306 52" fill="none" xmlns="http://www.w3.org/2000/svg">
<path d="M41.12 51H31.688L20.6 32.784L9.512 51H0.08L15.92 25.08L1.016 0.599997H10.376L20.6 17.376L30.824 0.599997H40.256L25.352 25.08L41.12 51ZM61.0983 51.936C55.8183 51.936 51.3303 50.112 47.6343 46.464C43.9383 42.816 42.0903 38.328 42.0903 33C42.0903 27.672 43.9383 23.184 47.6343 19.536C51.3303 15.888 55.8183 14.064 61.0983 14.064C66.4263 14.064 70.9143 15.888 74.5623 19.536C78.2583 23.184 80.1063 27.672 80.1063 33C80.1063 38.328 78.2583 42.816 74.5623 46.464C70.9143 50.112 66.4263 51.936 61.0983 51.936ZM53.1063 41.136C55.2663 43.296 57.9303 44.376 61.0983 44.376C64.2663 44.376 66.9303 43.296 69.0903 41.136C71.2503 38.976 72.3303 36.264 72.3303 33C72.3303 29.736 71.2503 27.024 69.0903 24.864C66.9303 22.704 64.2663 21.624 61.0983 21.624C57.9303 21.624 55.2663 22.704 53.1063 24.864C50.9463 27.024 49.8663 29.736 49.8663 33C49.8663 36.264 50.9463 38.976 53.1063 41.136ZM104.13 51.936C98.7056 51.936 94.1696 50.112 90.5216 46.464C86.9216 42.816 85.1216 38.328 85.1216 33C85.1216 27.624 86.9216 23.136 90.5216 19.536C94.1696 15.888 98.7056 14.064 104.13 14.064C107.634 14.064 110.826 14.904 113.706 16.584C116.586 18.264 118.746 20.52 120.186 23.352L113.49 27.24C112.674 25.512 111.426 24.168 109.746 23.208C108.114 22.2 106.218 21.696 104.058 21.696C100.89 21.696 98.2256 22.776 96.0656 24.936C93.9536 27.096 92.8976 29.784 92.8976 33C92.8976 36.216 93.9536 38.904 96.0656 41.064C98.2256 43.224 100.89 44.304 104.058 44.304C106.17 44.304 108.066 43.8 109.746 42.792C111.474 41.784 112.77 40.44 113.634 38.76L120.33 42.576C118.794 45.456 116.586 47.736 113.706 49.416C110.826 51.096 107.634 51.936 104.13 51.936ZM153.103 15V22.488H141.367V51H133.591V22.488H121.783V15H153.103ZM184.428 15H190.404V51H182.772V28.104L164.34 51H158.364V15H165.996V37.824L184.428 15ZM223.691 15H231.467V51H223.691V36.672H207.203V51H199.427V15H207.203V29.328H223.691V15ZM264.609 15V22.488H248.265V51H240.489V15H264.609ZM286.872 51.936C281.592 51.936 277.104 50.112 273.408 46.464C269.712 42.816 267.864 38.328 267.864 33C267.864 27.672 269.712 23.184 273.408 19.536C277.104 15.888 281.592 14.064 286.872 14.064C292.2 14.064 296.688 15.888 300.336 19.536C304.032 23.184 305.88 27.672 305.88 33C305.88 38.328 304.032 42.816 300.336 46.464C296.688 50.112 292.2 51.936 286.872 51.936ZM278.88 41.136C281.04 43.296 283.704 44.376 286.872 44.376C290.04 44.376 292.704 43.296 294.864 41.136C297.024 38.976 298.104 36.264 298.104 33C298.104 29.736 297.024 27.024 294.864 24.864C292.704 22.704 290.04 21.624 286.872 21.624C283.704 21.624 281.04 22.704 278.88 24.864C276.72 27.024 275.64 29.736 275.64 33C275.64 36.264 276.72 38.976 278.88 41.136Z" fill="#4D30FF"/>
</svg>
