<svg width="90" height="90" viewBox="0 0 90 90" fill="none" xmlns="http://www.w3.org/2000/svg">
<rect width="90" height="90" rx="4" fill="#27D583"/>
<path d="M65.7772 33.245L48.933 50.0892C46.3385 52.691 42.126 52.6969 39.5242 50.1024C39.5198 50.098 39.5153 50.0936 39.5109 50.0892L22.6668 33.245C23.766 30.9267 26.101 29.4479 28.6667 29.4451H59.7773C62.3429 29.4479 64.678 30.9267 65.7772 33.245Z" fill="white" fill-opacity="0.85"/>
<path d="M65.7771 33.245L48.9329 50.0891C46.3384 52.6909 42.1259 52.6968 39.5241 50.1024C39.5196 50.098 39.5152 50.0935 39.5108 50.0891L22.6666 33.245C22.2299 34.1376 22.0019 35.1178 22 36.1116V58.3334C22.0108 62.0108 24.9892 64.9891 28.6666 65H59.7771C63.4545 64.9891 66.4328 62.0108 66.4437 58.3334V36.1116C66.4418 35.1178 66.2138 34.1376 65.7771 33.245Z" fill="white" fill-opacity="0.7"/>
<path d="M57.9369 45.0003C57.3475 45.0004 56.7823 44.7662 56.3658 44.3492L49.3173 37.303C46.503 34.4882 46.5034 29.9249 49.3182 27.1106C51.5998 24.8294 55.1196 24.3425 57.9347 25.9187C60.761 24.3963 64.2476 24.8786 66.5544 27.1112C69.3647 29.9269 69.3647 34.4863 66.5544 37.302L59.508 44.3492C59.0914 44.7662 58.5262 45.0004 57.9369 45.0003Z" fill="white"/>
</svg>
