<svg width="213" height="271" viewBox="0 0 213 271" fill="none" xmlns="http://www.w3.org/2000/svg">
<g clip-path="url(#clip0)">
<path d="M134.622 3L144.682 71.2539L174.415 8.9977L163.91 77.1846L210.671 26.4578L180.535 88.519L240.169 53.8289L193.079 104.25L260.29 88.679L200.43 122.98L269.245 127.911L201.934 143.044L266.237 168.04L197.456 162.661L251.535 205.5L187.396 180.086L226.445 236.962L172.646 193.771L193.197 259.631L154.518 202.501L154.743 271.492L134.622 205.5L114.501 271.492L114.727 202.501L76.0482 259.631L96.5985 193.771L42.7992 236.962L81.8489 180.086L17.7091 205.5L71.7885 162.661L3.0072 168.04L67.3112 143.044L0 127.911L68.8149 122.98L8.9545 88.679L76.1658 104.25L29.0753 53.8289L88.7105 88.519L58.5743 26.4578L105.335 77.1846L94.8305 8.9977L124.562 71.2539L134.622 3Z" fill="#27D583"/>
</g>
<defs>
<clipPath id="clip0">
<rect width="213" height="271" fill="white"/>
</clipPath>
</defs>
</svg>
