<svg width="13" height="13" viewBox="0 0 13 13" fill="none" xmlns="http://www.w3.org/2000/svg">
<path d="M1.71861 0.947797C2.1988 0.467676 3.65028 0.387243 3.66119 0.641448C3.67211 0.895653 4.9684 3.71146 4.97964 3.96566C4.99088 4.21987 4.12518 5.0854 3.87198 5.33876C3.62101 5.58951 5.56581 7.7874 5.6026 7.82905C5.64396 7.86614 7.84196 9.81054 8.093 9.5596C8.34626 9.30624 9.21229 8.44077 9.46555 8.45205C9.71881 8.46333 12.5366 9.75905 12.7904 9.77065C13.0443 9.78226 12.9644 11.2325 12.4842 11.713C12.0735 12.1237 9.94718 13.6137 6.24993 10.9525C5.84482 10.7194 5.20239 10.1845 4.22848 9.21114C4.22793 9.21055 4.22729 9.21005 4.22659 9.20965C4.22592 9.20879 4.22516 9.20803 4.2243 9.20736L4.22201 9.20508C4.22161 9.20438 4.2211 9.20374 4.22051 9.20319C3.24732 8.22939 2.71231 7.58671 2.47898 7.18181C-0.182222 3.48456 1.3086 1.35824 1.71861 0.947797Z" fill="#ADB4C3"/>
</svg>
