<svg width="100" height="100" viewBox="0 0 100 100" fill="none" xmlns="http://www.w3.org/2000/svg">
<path fill-rule="evenodd" clip-rule="evenodd" d="M81.4699 68.1099C71.3906 85.5677 49.0677 91.5491 31.6099 81.4699C14.1522 71.3907 8.17074 49.0677 18.25 31.6099C28.3292 14.1522 50.6522 8.1708 68.1099 18.25C85.5677 28.3293 91.549 50.6522 81.4699 68.1099ZM44.5399 39.608C47.514 41.3251 51.3173 40.306 53.0345 37.3317C54.7516 34.3576 53.7326 30.5542 50.7585 28.8371C47.7841 27.1199 43.9808 28.139 42.2637 31.1131C40.5464 34.0875 41.5655 37.8908 44.5399 39.608ZM61.3983 49.3413C64.3727 51.0585 68.176 50.0394 69.8933 47.0651C71.6103 44.091 70.5913 40.2876 67.6169 38.5704C64.6428 36.8533 60.8395 37.8724 59.1224 40.8465C57.4052 43.8209 58.4243 47.6242 61.3983 49.3413ZM43.7403 61C36.4988 56.8191 34.0175 47.5591 38.1985 40.3175L32.5789 37.0731C26.6061 47.4182 30.1507 60.6469 40.4958 66.6197C50.8412 72.5926 64.0697 69.0478 70.0425 58.7027L64.4228 55.4582C60.2419 62.6997 50.9822 65.1811 43.7403 61Z" fill="#27D583"/>
</svg>
