<svg width="285" height="285" viewBox="0 0 285 285" fill="none" xmlns="http://www.w3.org/2000/svg">
<path d="M251.344 110.053C255.008 109.523 256.388 114.675 252.95 116.049L224.11 127.565C186.868 142.435 164.668 180.887 170.411 220.573L174.858 251.308C175.388 254.972 170.235 256.353 168.862 252.915L157.346 224.074C142.476 186.833 104.024 164.633 64.3374 170.375L33.6026 174.823C29.9384 175.353 28.5578 170.2 31.996 168.827L60.8367 157.311C98.0776 142.441 120.278 103.989 114.535 64.3019L110.088 33.567C109.558 29.9033 114.711 28.5227 116.084 31.9605L127.6 60.8012C142.47 98.0423 180.922 120.243 220.609 114.5L251.344 110.053Z" fill="#FF6D30"/>
</svg>
