<svg width="0" height="0" class="hidden">
  <symbol fill="none" xmlns="http://www.w3.org/2000/svg" viewBox="0 0 20 16" id="filter-icor">
    <path d="M13.536 8H1m12.536 0a1.286 1.286 0 102.571 0m-2.571 0a1.286 1.286 0 112.571 0M19 8h-2.893M19 13.143H6.464m0 0a1.286 1.286 0 10-2.571 0m2.571 0a1.286 1.286 0 01-2.571 0m0 0H1M19 2.857H9.679m0 0a1.286 1.286 0 10-2.572 0m2.572 0a1.286 1.286 0 11-2.572 0m0 0H1" stroke-width="1.25" stroke-linecap="round" stroke-linejoin="round"></path>
  </symbol>
  <symbol fill="none" xmlns="http://www.w3.org/2000/svg" viewBox="0 0 7 4" id="select-arrow">
    <path d="M5.969.164a.588.588 0 01.812 0l.05.049a.544.544 0 010 .788L3.906 3.836a.587.587 0 01-.815 0L.17 1A.547.547 0 01.167.213l.051-.05a.585.585 0 01.812 0L3.5 2.559 5.968.164z" fill="#ADB4C3"></path>
  </symbol>
  <symbol fill="none" xmlns="http://www.w3.org/2000/svg" viewBox="0 0 20 18" id="basket">
    <path d="M18.658 3.355h-2.314a.949.949 0 000 1.898h1.12l-1.614 6.982a.428.428 0 01-.42.334H6.813L4.576 2.86A1.628 1.628 0 002.98 1.59H.95a.949.949 0 000 1.898h1.825L5.07 13.45l-.528 1.399A2.33 2.33 0 006.72 18h8.518a.949.949 0 000-1.898H6.72a.421.421 0 01-.355-.185.42.42 0 01-.049-.397l.397-1.054h8.717c1.09 0 2.023-.741 2.268-1.803l1.884-8.145a.947.947 0 00-.924-1.163z" fill="#4D30FF"></path>
    <path d="M11.293 0a.949.949 0 00-.95.949v5.486L9.148 5.297A.948.948 0 107.84 6.674l2.799 2.657a.945.945 0 001.306 0l2.798-2.656a.95.95 0 00-1.307-1.377L12.24 6.434V.949A.949.949 0 0011.293 0z" fill="#4D30FF"></path>
  </symbol>
  <symbol fill="none" xmlns="http://www.w3.org/2000/svg" viewBox="0 0 15 15" id="not-basket">
    <path d="M8.572 7.485L13.855 2.2h0l.007-.008a.774.774 0 00-1.09-1.09h0l-.007.007-5.283 5.285L2.2 1.102h0A.775.775 0 101.102 2.2h0l5.29 5.285-5.283 5.292h0l-.007.008a.773.773 0 001.09 1.09h0l.007-.007 5.283-5.292 5.286 5.282a.773.773 0 101.09-1.09L8.573 7.485z" fill="#4D30FF" stroke="#4D30FF" stroke-width=".25"></path>
  </symbol>
</svg>