<svg width="208" height="118" viewBox="0 0 208 118" fill="none" xmlns="http://www.w3.org/2000/svg">
<path d="M3.80491 30.8746C3.80491 28.7725 2.10135 27.0681 0 27.0681V0C17.0445 0 30.8618 13.823 30.8618 30.8746V87.1254C30.8618 89.2275 32.5653 90.9319 34.6666 90.9319C36.7681 90.9319 38.4716 89.2275 38.4716 87.1254V30.8746C38.4716 13.823 52.2889 0 69.3336 0C86.3779 0 100.195 13.823 100.195 30.8746V87.1254C100.195 89.2275 101.899 90.9319 104 90.9319C106.101 90.9319 107.805 89.2275 107.805 87.1254V30.8746C107.805 13.823 121.622 0 138.666 0C155.711 0 169.529 13.823 169.529 30.8746V87.1254C169.529 89.2275 171.232 90.9319 173.334 90.9319C175.435 90.9319 177.139 89.2275 177.139 87.1254V30.8746C177.139 13.823 190.956 0 208 0V27.0681C205.899 27.0681 204.195 28.7725 204.195 30.8746V87.1254C204.195 104.177 190.378 118 173.334 118C156.289 118 142.471 104.177 142.471 87.1254V30.8746C142.471 28.7725 140.768 27.0681 138.666 27.0681C136.565 27.0681 134.861 28.7725 134.861 30.8746V87.1254C134.861 104.177 121.044 118 104 118C86.9557 118 73.1386 104.177 73.1386 87.1254V30.8746C73.1386 28.7725 71.4347 27.0681 69.3336 27.0681C67.2317 27.0681 65.5286 28.7725 65.5286 30.8746V87.1254C65.5286 104.177 51.7111 118 34.6666 118C17.6221 118 3.80491 104.177 3.80491 87.1254V30.8746Z" fill="#FF6D30"/>
</svg>
